solid OpenSCAD_Model
  facet normal 0.994522 0.104528 0
    outer loop
      vertex 19 0 30
      vertex 18.5848 3.95032 0
      vertex 18.5848 3.95032 30
    endloop
  endfacet
  facet normal 0.994522 0.104528 0
    outer loop
      vertex 18.5848 3.95032 0
      vertex 19 0 30
      vertex 19 0 0
    endloop
  endfacet
  facet normal -0.994522 0.104528 0
    outer loop
      vertex -19 0 0
      vertex -18.5848 3.95032 30
      vertex -18.5848 3.95032 0
    endloop
  endfacet
  facet normal -0.994522 0.104528 0
    outer loop
      vertex -18.5848 3.95032 30
      vertex -19 0 0
      vertex -19 0 30
    endloop
  endfacet
  facet normal 0 1 -0
    outer loop
      vertex 1.98604 18.8959 0
      vertex -1.98604 18.8959 30
      vertex 1.98604 18.8959 30
    endloop
  endfacet
  facet normal 0 1 0
    outer loop
      vertex -1.98604 18.8959 30
      vertex 1.98604 18.8959 0
      vertex -1.98604 18.8959 0
    endloop
  endfacet
  facet normal 0 -1 0
    outer loop
      vertex -1.98604 -18.8959 0
      vertex 1.98604 -18.8959 30
      vertex -1.98604 -18.8959 30
    endloop
  endfacet
  facet normal 0 -1 -0
    outer loop
      vertex 1.98604 -18.8959 30
      vertex -1.98604 -18.8959 0
      vertex 1.98604 -18.8959 0
    endloop
  endfacet
  facet normal 0.587785 0.809017 -0
    outer loop
      vertex 12.7135 14.1198 0
      vertex 9.5 16.4545 30
      vertex 12.7135 14.1198 30
    endloop
  endfacet
  facet normal 0.587785 0.809017 0
    outer loop
      vertex 9.5 16.4545 30
      vertex 12.7135 14.1198 0
      vertex 9.5 16.4545 0
    endloop
  endfacet
  facet normal -0.743145 0.669131 0
    outer loop
      vertex -15.3713 11.1679 0
      vertex -12.7135 14.1198 30
      vertex -12.7135 14.1198 0
    endloop
  endfacet
  facet normal -0.743145 0.669131 0
    outer loop
      vertex -12.7135 14.1198 30
      vertex -15.3713 11.1679 0
      vertex -15.3713 11.1679 30
    endloop
  endfacet
  facet normal -0.866025 0.5 0
    outer loop
      vertex -17.3574 7.728 0
      vertex -15.3713 11.1679 30
      vertex -15.3713 11.1679 0
    endloop
  endfacet
  facet normal -0.866025 0.5 0
    outer loop
      vertex -15.3713 11.1679 30
      vertex -17.3574 7.728 0
      vertex -17.3574 7.728 30
    endloop
  endfacet
  facet normal -0.406736 0.913546 0
    outer loop
      vertex -5.87132 18.0701 0
      vertex -9.5 16.4545 30
      vertex -5.87132 18.0701 30
    endloop
  endfacet
  facet normal -0.406736 0.913546 0
    outer loop
      vertex -9.5 16.4545 30
      vertex -5.87132 18.0701 0
      vertex -9.5 16.4545 0
    endloop
  endfacet
  facet normal 0.866025 0.5 0
    outer loop
      vertex 17.3574 7.728 30
      vertex 15.3713 11.1679 0
      vertex 15.3713 11.1679 30
    endloop
  endfacet
  facet normal 0.866025 0.5 0
    outer loop
      vertex 15.3713 11.1679 0
      vertex 17.3574 7.728 30
      vertex 17.3574 7.728 0
    endloop
  endfacet
  facet normal 0.951056 0.309017 0
    outer loop
      vertex 18.5848 3.95032 30
      vertex 17.3574 7.728 0
      vertex 17.3574 7.728 30
    endloop
  endfacet
  facet normal 0.951056 0.309017 0
    outer loop
      vertex 17.3574 7.728 0
      vertex 18.5848 3.95032 30
      vertex 18.5848 3.95032 0
    endloop
  endfacet
  facet normal 0.743145 0.669131 0
    outer loop
      vertex 15.3713 11.1679 30
      vertex 12.7135 14.1198 0
      vertex 12.7135 14.1198 30
    endloop
  endfacet
  facet normal 0.743145 0.669131 0
    outer loop
      vertex 12.7135 14.1198 0
      vertex 15.3713 11.1679 30
      vertex 15.3713 11.1679 0
    endloop
  endfacet
  facet normal 0.207912 0.978148 -0
    outer loop
      vertex 5.87132 18.0701 0
      vertex 1.98604 18.8959 30
      vertex 5.87132 18.0701 30
    endloop
  endfacet
  facet normal 0.207912 0.978148 0
    outer loop
      vertex 1.98604 18.8959 30
      vertex 5.87132 18.0701 0
      vertex 1.98604 18.8959 0
    endloop
  endfacet
  facet normal 0.406736 0.913546 -0
    outer loop
      vertex 9.5 16.4545 0
      vertex 5.87132 18.0701 30
      vertex 9.5 16.4545 30
    endloop
  endfacet
  facet normal 0.406736 0.913546 0
    outer loop
      vertex 5.87132 18.0701 30
      vertex 9.5 16.4545 0
      vertex 5.87132 18.0701 0
    endloop
  endfacet
  facet normal -0.951056 0.309017 0
    outer loop
      vertex -18.5848 3.95032 0
      vertex -17.3574 7.728 30
      vertex -17.3574 7.728 0
    endloop
  endfacet
  facet normal -0.951056 0.309017 0
    outer loop
      vertex -17.3574 7.728 30
      vertex -18.5848 3.95032 0
      vertex -18.5848 3.95032 30
    endloop
  endfacet
  facet normal 0 0 -1
    outer loop
      vertex 15.5 0 25
      vertex 17.75 0 25
      vertex 17.3621 -3.69043 25
    endloop
  endfacet
  facet normal 0 0 -1
    outer loop
      vertex 15.1613 -3.22263 25
      vertex 17.3621 -3.69043 25
      vertex 16.2154 -7.21957 25
    endloop
  endfacet
  facet normal 0 0 -1
    outer loop
      vertex 17.75 0 25
      vertex 15.5 0 25
      vertex 17.3621 3.69043 25
    endloop
  endfacet
  facet normal 0 0 -1
    outer loop
      vertex 15.1613 3.22263 25
      vertex 17.3621 3.69043 25
      vertex 15.5 0 25
    endloop
  endfacet
  facet normal 0 0 -1
    outer loop
      vertex 17.3621 -3.69043 25
      vertex 15.1613 -3.22263 25
      vertex 15.5 0 25
    endloop
  endfacet
  facet normal 0 0 -1
    outer loop
      vertex 14.16 -6.30442 25
      vertex 16.2154 -7.21957 25
      vertex 14.3601 -10.4332 25
    endloop
  endfacet
  facet normal 0 0 -1
    outer loop
      vertex 16.2154 -7.21957 25
      vertex 14.16 -6.30442 25
      vertex 15.1613 -3.22263 25
    endloop
  endfacet
  facet normal 0 0 -1
    outer loop
      vertex 14.3601 -10.4332 25
      vertex 12.5398 -9.11067 25
      vertex 14.16 -6.30442 25
    endloop
  endfacet
  facet normal 0 0 -1
    outer loop
      vertex 11.8771 -13.1908 25
      vertex 12.5398 -9.11067 25
      vertex 14.3601 -10.4332 25
    endloop
  endfacet
  facet normal 0 0 -1
    outer loop
      vertex 11.8771 -13.1908 25
      vertex 10.3715 -11.5187 25
      vertex 12.5398 -9.11067 25
    endloop
  endfacet
  facet normal 0 0 -1
    outer loop
      vertex 8.875 -15.372 25
      vertex 10.3715 -11.5187 25
      vertex 11.8771 -13.1908 25
    endloop
  endfacet
  facet normal 0 0 -1
    outer loop
      vertex 8.875 -15.372 25
      vertex 7.75 -13.4234 25
      vertex 10.3715 -11.5187 25
    endloop
  endfacet
  facet normal 0 0 -1
    outer loop
      vertex 5.48505 -16.8813 25
      vertex 7.75 -13.4234 25
      vertex 8.875 -15.372 25
    endloop
  endfacet
  facet normal 0 0 -1
    outer loop
      vertex 5.48505 -16.8813 25
      vertex 4.78976 -14.7414 25
      vertex 7.75 -13.4234 25
    endloop
  endfacet
  facet normal 0 0 -1
    outer loop
      vertex 1.85538 -17.6528 25
      vertex 4.78976 -14.7414 25
      vertex 5.48505 -16.8813 25
    endloop
  endfacet
  facet normal 0 0 -1
    outer loop
      vertex 1.85538 -17.6528 25
      vertex 1.62019 -15.4151 25
      vertex 4.78976 -14.7414 25
    endloop
  endfacet
  facet normal 0 0 -1
    outer loop
      vertex 1.85538 -17.6528 25
      vertex -1.62019 -15.4151 25
      vertex 1.62019 -15.4151 25
    endloop
  endfacet
  facet normal 0 0 -1
    outer loop
      vertex -1.85538 -17.6528 25
      vertex -1.62019 -15.4151 25
      vertex 1.85538 -17.6528 25
    endloop
  endfacet
  facet normal 0 0 -1
    outer loop
      vertex -1.85538 -17.6528 25
      vertex -4.78976 -14.7414 25
      vertex -1.62019 -15.4151 25
    endloop
  endfacet
  facet normal 0 0 -1
    outer loop
      vertex -5.48505 -16.8813 25
      vertex -4.78976 -14.7414 25
      vertex -1.85538 -17.6528 25
    endloop
  endfacet
  facet normal 0 0 -1
    outer loop
      vertex -5.48505 -16.8813 25
      vertex -7.75 -13.4234 25
      vertex -4.78976 -14.7414 25
    endloop
  endfacet
  facet normal 0 0 -1
    outer loop
      vertex -8.875 -15.372 25
      vertex -7.75 -13.4234 25
      vertex -5.48505 -16.8813 25
    endloop
  endfacet
  facet normal 0 0 -1
    outer loop
      vertex -8.875 -15.372 25
      vertex -10.3715 -11.5187 25
      vertex -7.75 -13.4234 25
    endloop
  endfacet
  facet normal 0 0 -1
    outer loop
      vertex -11.8771 -13.1908 25
      vertex -10.3715 -11.5187 25
      vertex -8.875 -15.372 25
    endloop
  endfacet
  facet normal 0 0 -1
    outer loop
      vertex -11.8771 -13.1908 25
      vertex -12.5398 -9.11067 25
      vertex -10.3715 -11.5187 25
    endloop
  endfacet
  facet normal 0 0 -1
    outer loop
      vertex -14.3601 -10.4332 25
      vertex -12.5398 -9.11067 25
      vertex -11.8771 -13.1908 25
    endloop
  endfacet
  facet normal -0 0 -1
    outer loop
      vertex -12.5398 -9.11067 25
      vertex -14.3601 -10.4332 25
      vertex -14.16 -6.30442 25
    endloop
  endfacet
  facet normal 0 0 -1
    outer loop
      vertex -16.2154 -7.21957 25
      vertex -14.16 -6.30442 25
      vertex -14.3601 -10.4332 25
    endloop
  endfacet
  facet normal 0 0 -1
    outer loop
      vertex -17.3621 -3.69043 25
      vertex -15.1613 -3.22263 25
      vertex -16.2154 -7.21957 25
    endloop
  endfacet
  facet normal -0 0 -1
    outer loop
      vertex -14.16 -6.30442 25
      vertex -16.2154 -7.21957 25
      vertex -15.1613 -3.22263 25
    endloop
  endfacet
  facet normal -0 0 -1
    outer loop
      vertex 17.3621 3.69043 25
      vertex 15.1613 3.22263 25
      vertex 16.2154 7.21957 25
    endloop
  endfacet
  facet normal 0 0 -1
    outer loop
      vertex 14.16 6.30442 25
      vertex 16.2154 7.21957 25
      vertex 15.1613 3.22263 25
    endloop
  endfacet
  facet normal -0 0 -1
    outer loop
      vertex 16.2154 7.21957 25
      vertex 14.16 6.30442 25
      vertex 14.3601 10.4332 25
    endloop
  endfacet
  facet normal 0 0 -1
    outer loop
      vertex 12.5398 9.11067 25
      vertex 14.3601 10.4332 25
      vertex 14.16 6.30442 25
    endloop
  endfacet
  facet normal 0 0 -1
    outer loop
      vertex 12.5398 9.11067 25
      vertex 11.8771 13.1908 25
      vertex 14.3601 10.4332 25
    endloop
  endfacet
  facet normal 0 0 -1
    outer loop
      vertex 10.3715 11.5187 25
      vertex 11.8771 13.1908 25
      vertex 12.5398 9.11067 25
    endloop
  endfacet
  facet normal 0 0 -1
    outer loop
      vertex 10.3715 11.5187 25
      vertex 8.875 15.372 25
      vertex 11.8771 13.1908 25
    endloop
  endfacet
  facet normal 0 0 -1
    outer loop
      vertex 7.75 13.4234 25
      vertex 8.875 15.372 25
      vertex 10.3715 11.5187 25
    endloop
  endfacet
  facet normal 0 0 -1
    outer loop
      vertex 7.75 13.4234 25
      vertex 5.48505 16.8813 25
      vertex 8.875 15.372 25
    endloop
  endfacet
  facet normal 0 0 -1
    outer loop
      vertex 4.78976 14.7414 25
      vertex 5.48505 16.8813 25
      vertex 7.75 13.4234 25
    endloop
  endfacet
  facet normal 0 0 -1
    outer loop
      vertex 4.78976 14.7414 25
      vertex 1.85538 17.6528 25
      vertex 5.48505 16.8813 25
    endloop
  endfacet
  facet normal 0 0 -1
    outer loop
      vertex 1.62019 15.4151 25
      vertex 1.85538 17.6528 25
      vertex 4.78976 14.7414 25
    endloop
  endfacet
  facet normal 0 0 -1
    outer loop
      vertex -1.62019 15.4151 25
      vertex 1.85538 17.6528 25
      vertex 1.62019 15.4151 25
    endloop
  endfacet
  facet normal 0 0 -1
    outer loop
      vertex -1.62019 15.4151 25
      vertex -1.85538 17.6528 25
      vertex 1.85538 17.6528 25
    endloop
  endfacet
  facet normal 0 0 -1
    outer loop
      vertex -4.78976 14.7414 25
      vertex -1.85538 17.6528 25
      vertex -1.62019 15.4151 25
    endloop
  endfacet
  facet normal 0 0 -1
    outer loop
      vertex -4.78976 14.7414 25
      vertex -5.48505 16.8813 25
      vertex -1.85538 17.6528 25
    endloop
  endfacet
  facet normal 0 0 -1
    outer loop
      vertex -7.75 13.4234 25
      vertex -5.48505 16.8813 25
      vertex -4.78976 14.7414 25
    endloop
  endfacet
  facet normal 0 0 -1
    outer loop
      vertex -7.75 13.4234 25
      vertex -8.875 15.372 25
      vertex -5.48505 16.8813 25
    endloop
  endfacet
  facet normal 0 0 -1
    outer loop
      vertex -10.3715 11.5187 25
      vertex -8.875 15.372 25
      vertex -7.75 13.4234 25
    endloop
  endfacet
  facet normal 0 0 -1
    outer loop
      vertex -10.3715 11.5187 25
      vertex -11.8771 13.1908 25
      vertex -8.875 15.372 25
    endloop
  endfacet
  facet normal 0 0 -1
    outer loop
      vertex -12.5398 9.11067 25
      vertex -11.8771 13.1908 25
      vertex -10.3715 11.5187 25
    endloop
  endfacet
  facet normal 0 0 -1
    outer loop
      vertex -14.3601 10.4332 25
      vertex -12.5398 9.11067 25
      vertex -14.16 6.30442 25
    endloop
  endfacet
  facet normal 0 0 -1
    outer loop
      vertex -12.5398 9.11067 25
      vertex -14.3601 10.4332 25
      vertex -11.8771 13.1908 25
    endloop
  endfacet
  facet normal 0 0 -1
    outer loop
      vertex -16.2154 7.21957 25
      vertex -14.16 6.30442 25
      vertex -15.1613 3.22263 25
    endloop
  endfacet
  facet normal 0 0 -1
    outer loop
      vertex -14.16 6.30442 25
      vertex -16.2154 7.21957 25
      vertex -14.3601 10.4332 25
    endloop
  endfacet
  facet normal 0 0 -1
    outer loop
      vertex -17.3621 3.69043 25
      vertex -15.1613 3.22263 25
      vertex -15.5 0 25
    endloop
  endfacet
  facet normal -0 0 -1
    outer loop
      vertex -15.1613 -3.22263 25
      vertex -17.3621 -3.69043 25
      vertex -15.5 0 25
    endloop
  endfacet
  facet normal 0 0 -1
    outer loop
      vertex -17.75 0 25
      vertex -15.5 0 25
      vertex -17.3621 -3.69043 25
    endloop
  endfacet
  facet normal 0 0 -1
    outer loop
      vertex -15.1613 3.22263 25
      vertex -17.3621 3.69043 25
      vertex -16.2154 7.21957 25
    endloop
  endfacet
  facet normal 0 0 -1
    outer loop
      vertex -15.5 0 25
      vertex -17.75 0 25
      vertex -17.3621 3.69043 25
    endloop
  endfacet
  facet normal -0.587785 0.809017 0
    outer loop
      vertex -9.5 16.4545 0
      vertex -12.7135 14.1198 30
      vertex -9.5 16.4545 30
    endloop
  endfacet
  facet normal -0.587785 0.809017 0
    outer loop
      vertex -12.7135 14.1198 30
      vertex -9.5 16.4545 0
      vertex -12.7135 14.1198 0
    endloop
  endfacet
  facet normal -0.207912 0.978148 0
    outer loop
      vertex -1.98604 18.8959 0
      vertex -5.87132 18.0701 30
      vertex -1.98604 18.8959 30
    endloop
  endfacet
  facet normal -0.207912 0.978148 0
    outer loop
      vertex -5.87132 18.0701 30
      vertex -1.98604 18.8959 0
      vertex -5.87132 18.0701 0
    endloop
  endfacet
  facet normal 0.994522 -0.104528 0
    outer loop
      vertex 18.5848 -3.95032 30
      vertex 19 0 0
      vertex 19 0 30
    endloop
  endfacet
  facet normal 0.994522 -0.104528 0
    outer loop
      vertex 19 0 0
      vertex 18.5848 -3.95032 30
      vertex 18.5848 -3.95032 0
    endloop
  endfacet
  facet normal 0 0 -1
    outer loop
      vertex 17.75 0 0
      vertex 19 0 0
      vertex 18.5848 -3.95032 0
    endloop
  endfacet
  facet normal 0 0 -1
    outer loop
      vertex 19 0 0
      vertex 17.75 0 0
      vertex 18.5848 3.95032 0
    endloop
  endfacet
  facet normal 0 0 -1
    outer loop
      vertex 18.5848 -3.95032 0
      vertex 17.3621 -3.69043 0
      vertex 17.75 0 0
    endloop
  endfacet
  facet normal 0 0 -1
    outer loop
      vertex 17.3574 -7.728 0
      vertex 17.3621 -3.69043 0
      vertex 18.5848 -3.95032 0
    endloop
  endfacet
  facet normal 0 0 -1
    outer loop
      vertex 17.3574 -7.728 0
      vertex 16.2154 -7.21957 0
      vertex 17.3621 -3.69043 0
    endloop
  endfacet
  facet normal 0 0 -1
    outer loop
      vertex 15.3713 -11.1679 0
      vertex 16.2154 -7.21957 0
      vertex 17.3574 -7.728 0
    endloop
  endfacet
  facet normal 0 0 -1
    outer loop
      vertex 15.3713 -11.1679 0
      vertex 14.3601 -10.4332 0
      vertex 16.2154 -7.21957 0
    endloop
  endfacet
  facet normal 0 0 -1
    outer loop
      vertex 12.7135 -14.1198 0
      vertex 14.3601 -10.4332 0
      vertex 15.3713 -11.1679 0
    endloop
  endfacet
  facet normal 0 0 -1
    outer loop
      vertex 12.7135 -14.1198 0
      vertex 11.8771 -13.1908 0
      vertex 14.3601 -10.4332 0
    endloop
  endfacet
  facet normal 0 0 -1
    outer loop
      vertex 9.5 -16.4545 0
      vertex 11.8771 -13.1908 0
      vertex 12.7135 -14.1198 0
    endloop
  endfacet
  facet normal 0 0 -1
    outer loop
      vertex 9.5 -16.4545 0
      vertex 8.875 -15.372 0
      vertex 11.8771 -13.1908 0
    endloop
  endfacet
  facet normal 0 0 -1
    outer loop
      vertex 5.87132 -18.0701 0
      vertex 8.875 -15.372 0
      vertex 9.5 -16.4545 0
    endloop
  endfacet
  facet normal 0 0 -1
    outer loop
      vertex 5.87132 -18.0701 0
      vertex 5.48505 -16.8813 0
      vertex 8.875 -15.372 0
    endloop
  endfacet
  facet normal 0 0 -1
    outer loop
      vertex 1.98604 -18.8959 0
      vertex 5.48505 -16.8813 0
      vertex 5.87132 -18.0701 0
    endloop
  endfacet
  facet normal 0 0 -1
    outer loop
      vertex 1.98604 -18.8959 0
      vertex 1.85538 -17.6528 0
      vertex 5.48505 -16.8813 0
    endloop
  endfacet
  facet normal 0 0 -1
    outer loop
      vertex 1.98604 -18.8959 0
      vertex -1.85538 -17.6528 0
      vertex 1.85538 -17.6528 0
    endloop
  endfacet
  facet normal 0 0 -1
    outer loop
      vertex -1.98604 -18.8959 0
      vertex -1.85538 -17.6528 0
      vertex 1.98604 -18.8959 0
    endloop
  endfacet
  facet normal 0 0 -1
    outer loop
      vertex -1.98604 -18.8959 0
      vertex -5.48505 -16.8813 0
      vertex -1.85538 -17.6528 0
    endloop
  endfacet
  facet normal 0 0 -1
    outer loop
      vertex -5.87132 -18.0701 0
      vertex -5.48505 -16.8813 0
      vertex -1.98604 -18.8959 0
    endloop
  endfacet
  facet normal 0 0 -1
    outer loop
      vertex -5.87132 -18.0701 0
      vertex -8.875 -15.372 0
      vertex -5.48505 -16.8813 0
    endloop
  endfacet
  facet normal 0 0 -1
    outer loop
      vertex -9.5 -16.4545 0
      vertex -8.875 -15.372 0
      vertex -5.87132 -18.0701 0
    endloop
  endfacet
  facet normal 0 0 -1
    outer loop
      vertex -9.5 -16.4545 0
      vertex -11.8771 -13.1908 0
      vertex -8.875 -15.372 0
    endloop
  endfacet
  facet normal 0 0 -1
    outer loop
      vertex -12.7135 -14.1198 0
      vertex -11.8771 -13.1908 0
      vertex -9.5 -16.4545 0
    endloop
  endfacet
  facet normal 0 0 -1
    outer loop
      vertex -12.7135 -14.1198 0
      vertex -14.3601 -10.4332 0
      vertex -11.8771 -13.1908 0
    endloop
  endfacet
  facet normal 0 0 -1
    outer loop
      vertex -15.3713 -11.1679 0
      vertex -14.3601 -10.4332 0
      vertex -12.7135 -14.1198 0
    endloop
  endfacet
  facet normal 0 0 -1
    outer loop
      vertex -15.3713 -11.1679 0
      vertex -16.2154 -7.21957 0
      vertex -14.3601 -10.4332 0
    endloop
  endfacet
  facet normal 0 0 -1
    outer loop
      vertex -17.3574 -7.728 0
      vertex -16.2154 -7.21957 0
      vertex -15.3713 -11.1679 0
    endloop
  endfacet
  facet normal 0 0 -1
    outer loop
      vertex -17.3574 -7.728 0
      vertex -17.3621 -3.69043 0
      vertex -16.2154 -7.21957 0
    endloop
  endfacet
  facet normal 0 0 -1
    outer loop
      vertex -18.5848 -3.95032 0
      vertex -17.3621 -3.69043 0
      vertex -17.3574 -7.728 0
    endloop
  endfacet
  facet normal -0 0 -1
    outer loop
      vertex -17.3621 -3.69043 0
      vertex -18.5848 -3.95032 0
      vertex -17.75 0 0
    endloop
  endfacet
  facet normal 0 0 -1
    outer loop
      vertex 17.3621 3.69043 0
      vertex 18.5848 3.95032 0
      vertex 17.75 0 0
    endloop
  endfacet
  facet normal 0 0 -1
    outer loop
      vertex 17.3621 3.69043 0
      vertex 17.3574 7.728 0
      vertex 18.5848 3.95032 0
    endloop
  endfacet
  facet normal 0 0 -1
    outer loop
      vertex 16.2154 7.21957 0
      vertex 17.3574 7.728 0
      vertex 17.3621 3.69043 0
    endloop
  endfacet
  facet normal 0 0 -1
    outer loop
      vertex 16.2154 7.21957 0
      vertex 15.3713 11.1679 0
      vertex 17.3574 7.728 0
    endloop
  endfacet
  facet normal 0 0 -1
    outer loop
      vertex 14.3601 10.4332 0
      vertex 15.3713 11.1679 0
      vertex 16.2154 7.21957 0
    endloop
  endfacet
  facet normal 0 0 -1
    outer loop
      vertex 14.3601 10.4332 0
      vertex 12.7135 14.1198 0
      vertex 15.3713 11.1679 0
    endloop
  endfacet
  facet normal 0 0 -1
    outer loop
      vertex 11.8771 13.1908 0
      vertex 12.7135 14.1198 0
      vertex 14.3601 10.4332 0
    endloop
  endfacet
  facet normal 0 0 -1
    outer loop
      vertex 11.8771 13.1908 0
      vertex 9.5 16.4545 0
      vertex 12.7135 14.1198 0
    endloop
  endfacet
  facet normal 0 0 -1
    outer loop
      vertex 8.875 15.372 0
      vertex 9.5 16.4545 0
      vertex 11.8771 13.1908 0
    endloop
  endfacet
  facet normal 0 0 -1
    outer loop
      vertex 8.875 15.372 0
      vertex 5.87132 18.0701 0
      vertex 9.5 16.4545 0
    endloop
  endfacet
  facet normal 0 0 -1
    outer loop
      vertex 5.48505 16.8813 0
      vertex 5.87132 18.0701 0
      vertex 8.875 15.372 0
    endloop
  endfacet
  facet normal 0 0 -1
    outer loop
      vertex 5.48505 16.8813 0
      vertex 1.98604 18.8959 0
      vertex 5.87132 18.0701 0
    endloop
  endfacet
  facet normal 0 0 -1
    outer loop
      vertex 1.85538 17.6528 0
      vertex 1.98604 18.8959 0
      vertex 5.48505 16.8813 0
    endloop
  endfacet
  facet normal 0 0 -1
    outer loop
      vertex -1.85538 17.6528 0
      vertex 1.98604 18.8959 0
      vertex 1.85538 17.6528 0
    endloop
  endfacet
  facet normal 0 0 -1
    outer loop
      vertex -1.85538 17.6528 0
      vertex -1.98604 18.8959 0
      vertex 1.98604 18.8959 0
    endloop
  endfacet
  facet normal 0 0 -1
    outer loop
      vertex -5.48505 16.8813 0
      vertex -1.98604 18.8959 0
      vertex -1.85538 17.6528 0
    endloop
  endfacet
  facet normal 0 0 -1
    outer loop
      vertex -5.48505 16.8813 0
      vertex -5.87132 18.0701 0
      vertex -1.98604 18.8959 0
    endloop
  endfacet
  facet normal 0 0 -1
    outer loop
      vertex -8.875 15.372 0
      vertex -5.87132 18.0701 0
      vertex -5.48505 16.8813 0
    endloop
  endfacet
  facet normal 0 0 -1
    outer loop
      vertex -8.875 15.372 0
      vertex -9.5 16.4545 0
      vertex -5.87132 18.0701 0
    endloop
  endfacet
  facet normal 0 0 -1
    outer loop
      vertex -11.8771 13.1908 0
      vertex -9.5 16.4545 0
      vertex -8.875 15.372 0
    endloop
  endfacet
  facet normal 0 0 -1
    outer loop
      vertex -11.8771 13.1908 0
      vertex -12.7135 14.1198 0
      vertex -9.5 16.4545 0
    endloop
  endfacet
  facet normal 0 0 -1
    outer loop
      vertex -14.3601 10.4332 0
      vertex -12.7135 14.1198 0
      vertex -11.8771 13.1908 0
    endloop
  endfacet
  facet normal 0 0 -1
    outer loop
      vertex -14.3601 10.4332 0
      vertex -15.3713 11.1679 0
      vertex -12.7135 14.1198 0
    endloop
  endfacet
  facet normal 0 0 -1
    outer loop
      vertex -16.2154 7.21957 0
      vertex -15.3713 11.1679 0
      vertex -14.3601 10.4332 0
    endloop
  endfacet
  facet normal 0 0 -1
    outer loop
      vertex -16.2154 7.21957 0
      vertex -17.3574 7.728 0
      vertex -15.3713 11.1679 0
    endloop
  endfacet
  facet normal 0 0 -1
    outer loop
      vertex -17.3621 3.69043 0
      vertex -17.3574 7.728 0
      vertex -16.2154 7.21957 0
    endloop
  endfacet
  facet normal 0 0 -1
    outer loop
      vertex -18.5848 3.95032 0
      vertex -17.3621 3.69043 0
      vertex -17.75 0 0
    endloop
  endfacet
  facet normal 0 0 -1
    outer loop
      vertex -19 0 0
      vertex -17.75 0 0
      vertex -18.5848 -3.95032 0
    endloop
  endfacet
  facet normal 0 0 -1
    outer loop
      vertex -17.3621 3.69043 0
      vertex -18.5848 3.95032 0
      vertex -17.3574 7.728 0
    endloop
  endfacet
  facet normal 0 0 -1
    outer loop
      vertex -17.75 0 0
      vertex -19 0 0
      vertex -18.5848 3.95032 0
    endloop
  endfacet
  facet normal 0.743145 -0.669131 0
    outer loop
      vertex 12.7135 -14.1198 30
      vertex 15.3713 -11.1679 0
      vertex 15.3713 -11.1679 30
    endloop
  endfacet
  facet normal 0.743145 -0.669131 0
    outer loop
      vertex 15.3713 -11.1679 0
      vertex 12.7135 -14.1198 30
      vertex 12.7135 -14.1198 0
    endloop
  endfacet
  facet normal 0.951056 -0.309017 0
    outer loop
      vertex 17.3574 -7.728 30
      vertex 18.5848 -3.95032 0
      vertex 18.5848 -3.95032 30
    endloop
  endfacet
  facet normal 0.951056 -0.309017 0
    outer loop
      vertex 18.5848 -3.95032 0
      vertex 17.3574 -7.728 30
      vertex 17.3574 -7.728 0
    endloop
  endfacet
  facet normal 0.866025 -0.5 0
    outer loop
      vertex 15.3713 -11.1679 30
      vertex 17.3574 -7.728 0
      vertex 17.3574 -7.728 30
    endloop
  endfacet
  facet normal 0.866025 -0.5 0
    outer loop
      vertex 17.3574 -7.728 0
      vertex 15.3713 -11.1679 30
      vertex 15.3713 -11.1679 0
    endloop
  endfacet
  facet normal -0.866025 -0.5 0
    outer loop
      vertex -15.3713 -11.1679 0
      vertex -17.3574 -7.728 30
      vertex -17.3574 -7.728 0
    endloop
  endfacet
  facet normal -0.866025 -0.5 0
    outer loop
      vertex -17.3574 -7.728 30
      vertex -15.3713 -11.1679 0
      vertex -15.3713 -11.1679 30
    endloop
  endfacet
  facet normal -0.994522 -0.104528 0
    outer loop
      vertex -18.5848 -3.95032 0
      vertex -19 0 30
      vertex -19 0 0
    endloop
  endfacet
  facet normal -0.994522 -0.104528 0
    outer loop
      vertex -19 0 30
      vertex -18.5848 -3.95032 0
      vertex -18.5848 -3.95032 30
    endloop
  endfacet
  facet normal 0.207912 -0.978148 0
    outer loop
      vertex 1.98604 -18.8959 0
      vertex 5.87132 -18.0701 30
      vertex 1.98604 -18.8959 30
    endloop
  endfacet
  facet normal 0.207912 -0.978148 0
    outer loop
      vertex 5.87132 -18.0701 30
      vertex 1.98604 -18.8959 0
      vertex 5.87132 -18.0701 0
    endloop
  endfacet
  facet normal 0.587785 -0.809017 0
    outer loop
      vertex 9.5 -16.4545 0
      vertex 12.7135 -14.1198 30
      vertex 9.5 -16.4545 30
    endloop
  endfacet
  facet normal 0.587785 -0.809017 0
    outer loop
      vertex 12.7135 -14.1198 30
      vertex 9.5 -16.4545 0
      vertex 12.7135 -14.1198 0
    endloop
  endfacet
  facet normal -0.406736 -0.913546 0
    outer loop
      vertex -9.5 -16.4545 0
      vertex -5.87132 -18.0701 30
      vertex -9.5 -16.4545 30
    endloop
  endfacet
  facet normal -0.406736 -0.913546 -0
    outer loop
      vertex -5.87132 -18.0701 30
      vertex -9.5 -16.4545 0
      vertex -5.87132 -18.0701 0
    endloop
  endfacet
  facet normal -0.743145 -0.669131 0
    outer loop
      vertex -12.7135 -14.1198 0
      vertex -15.3713 -11.1679 30
      vertex -15.3713 -11.1679 0
    endloop
  endfacet
  facet normal -0.743145 -0.669131 0
    outer loop
      vertex -15.3713 -11.1679 30
      vertex -12.7135 -14.1198 0
      vertex -12.7135 -14.1198 30
    endloop
  endfacet
  facet normal -0.951056 -0.309017 0
    outer loop
      vertex -17.3574 -7.728 0
      vertex -18.5848 -3.95032 30
      vertex -18.5848 -3.95032 0
    endloop
  endfacet
  facet normal -0.951056 -0.309017 0
    outer loop
      vertex -18.5848 -3.95032 30
      vertex -17.3574 -7.728 0
      vertex -17.3574 -7.728 30
    endloop
  endfacet
  facet normal 0.406736 -0.913546 0
    outer loop
      vertex 5.87132 -18.0701 0
      vertex 9.5 -16.4545 30
      vertex 5.87132 -18.0701 30
    endloop
  endfacet
  facet normal 0.406736 -0.913546 0
    outer loop
      vertex 9.5 -16.4545 30
      vertex 5.87132 -18.0701 0
      vertex 9.5 -16.4545 0
    endloop
  endfacet
  facet normal -0.587785 -0.809017 0
    outer loop
      vertex -12.7135 -14.1198 0
      vertex -9.5 -16.4545 30
      vertex -12.7135 -14.1198 30
    endloop
  endfacet
  facet normal -0.587785 -0.809017 -0
    outer loop
      vertex -9.5 -16.4545 30
      vertex -12.7135 -14.1198 0
      vertex -9.5 -16.4545 0
    endloop
  endfacet
  facet normal -0.207912 -0.978148 0
    outer loop
      vertex -5.87132 -18.0701 0
      vertex -1.98604 -18.8959 30
      vertex -5.87132 -18.0701 30
    endloop
  endfacet
  facet normal -0.207912 -0.978148 -0
    outer loop
      vertex -1.98604 -18.8959 30
      vertex -5.87132 -18.0701 0
      vertex -1.98604 -18.8959 0
    endloop
  endfacet
  facet normal -0.994522 -0.104529 0
    outer loop
      vertex 17.75 0 0
      vertex 17.3621 3.69043 25
      vertex 17.3621 3.69043 0
    endloop
  endfacet
  facet normal -0.994522 -0.104529 0
    outer loop
      vertex 17.3621 3.69043 25
      vertex 17.75 0 0
      vertex 17.75 0 25
    endloop
  endfacet
  facet normal 0.994522 -0.104529 0
    outer loop
      vertex -17.75 0 25
      vertex -17.3621 3.69043 0
      vertex -17.3621 3.69043 25
    endloop
  endfacet
  facet normal 0.994522 -0.104529 0
    outer loop
      vertex -17.3621 3.69043 0
      vertex -17.75 0 25
      vertex -17.75 0 0
    endloop
  endfacet
  facet normal 0 -1 0
    outer loop
      vertex -1.85538 17.6528 0
      vertex 1.85538 17.6528 25
      vertex -1.85538 17.6528 25
    endloop
  endfacet
  facet normal 0 -1 -0
    outer loop
      vertex 1.85538 17.6528 25
      vertex -1.85538 17.6528 0
      vertex 1.85538 17.6528 0
    endloop
  endfacet
  facet normal 0 1 -0
    outer loop
      vertex 1.85538 -17.6528 0
      vertex -1.85538 -17.6528 25
      vertex 1.85538 -17.6528 25
    endloop
  endfacet
  facet normal 0 1 0
    outer loop
      vertex -1.85538 -17.6528 25
      vertex 1.85538 -17.6528 0
      vertex -1.85538 -17.6528 0
    endloop
  endfacet
  facet normal -0.587785 -0.809017 0
    outer loop
      vertex 8.875 15.372 0
      vertex 11.8771 13.1908 25
      vertex 8.875 15.372 25
    endloop
  endfacet
  facet normal -0.587785 -0.809017 -0
    outer loop
      vertex 11.8771 13.1908 25
      vertex 8.875 15.372 0
      vertex 11.8771 13.1908 0
    endloop
  endfacet
  facet normal 0.743145 -0.669131 0
    outer loop
      vertex -14.3601 10.4332 25
      vertex -11.8771 13.1908 0
      vertex -11.8771 13.1908 25
    endloop
  endfacet
  facet normal 0.743145 -0.669131 0
    outer loop
      vertex -11.8771 13.1908 0
      vertex -14.3601 10.4332 25
      vertex -14.3601 10.4332 0
    endloop
  endfacet
  facet normal 0.406737 -0.913545 0
    outer loop
      vertex -8.875 15.372 0
      vertex -5.48505 16.8813 25
      vertex -8.875 15.372 25
    endloop
  endfacet
  facet normal 0.406737 -0.913545 0
    outer loop
      vertex -5.48505 16.8813 25
      vertex -8.875 15.372 0
      vertex -5.48505 16.8813 0
    endloop
  endfacet
  facet normal -0.866025 -0.5 0
    outer loop
      vertex 16.2154 7.21957 0
      vertex 14.3601 10.4332 25
      vertex 14.3601 10.4332 0
    endloop
  endfacet
  facet normal -0.866025 -0.5 0
    outer loop
      vertex 14.3601 10.4332 25
      vertex 16.2154 7.21957 0
      vertex 16.2154 7.21957 25
    endloop
  endfacet
  facet normal -0.951056 -0.309017 0
    outer loop
      vertex 17.3621 3.69043 0
      vertex 16.2154 7.21957 25
      vertex 16.2154 7.21957 0
    endloop
  endfacet
  facet normal -0.951056 -0.309017 0
    outer loop
      vertex 16.2154 7.21957 25
      vertex 17.3621 3.69043 0
      vertex 17.3621 3.69043 25
    endloop
  endfacet
  facet normal -0.743145 -0.669131 0
    outer loop
      vertex 14.3601 10.4332 0
      vertex 11.8771 13.1908 25
      vertex 11.8771 13.1908 0
    endloop
  endfacet
  facet normal -0.743145 -0.669131 0
    outer loop
      vertex 11.8771 13.1908 25
      vertex 14.3601 10.4332 0
      vertex 14.3601 10.4332 25
    endloop
  endfacet
  facet normal -0.207912 -0.978148 0
    outer loop
      vertex 1.85538 17.6528 0
      vertex 5.48505 16.8813 25
      vertex 1.85538 17.6528 25
    endloop
  endfacet
  facet normal -0.207912 -0.978148 -0
    outer loop
      vertex 5.48505 16.8813 25
      vertex 1.85538 17.6528 0
      vertex 5.48505 16.8813 0
    endloop
  endfacet
  facet normal -0.406737 -0.913545 0
    outer loop
      vertex 5.48505 16.8813 0
      vertex 8.875 15.372 25
      vertex 5.48505 16.8813 25
    endloop
  endfacet
  facet normal -0.406737 -0.913545 -0
    outer loop
      vertex 8.875 15.372 25
      vertex 5.48505 16.8813 0
      vertex 8.875 15.372 0
    endloop
  endfacet
  facet normal 0.866025 -0.5 0
    outer loop
      vertex -16.2154 7.21957 25
      vertex -14.3601 10.4332 0
      vertex -14.3601 10.4332 25
    endloop
  endfacet
  facet normal 0.866025 -0.5 0
    outer loop
      vertex -14.3601 10.4332 0
      vertex -16.2154 7.21957 25
      vertex -16.2154 7.21957 0
    endloop
  endfacet
  facet normal 0.951056 -0.309017 0
    outer loop
      vertex -17.3621 3.69043 25
      vertex -16.2154 7.21957 0
      vertex -16.2154 7.21957 25
    endloop
  endfacet
  facet normal 0.951056 -0.309017 0
    outer loop
      vertex -16.2154 7.21957 0
      vertex -17.3621 3.69043 25
      vertex -17.3621 3.69043 0
    endloop
  endfacet
  facet normal 0.587785 -0.809017 0
    outer loop
      vertex -11.8771 13.1908 0
      vertex -8.875 15.372 25
      vertex -11.8771 13.1908 25
    endloop
  endfacet
  facet normal 0.587785 -0.809017 0
    outer loop
      vertex -8.875 15.372 25
      vertex -11.8771 13.1908 0
      vertex -8.875 15.372 0
    endloop
  endfacet
  facet normal 0.207912 -0.978148 0
    outer loop
      vertex -5.48505 16.8813 0
      vertex -1.85538 17.6528 25
      vertex -5.48505 16.8813 25
    endloop
  endfacet
  facet normal 0.207912 -0.978148 0
    outer loop
      vertex -1.85538 17.6528 25
      vertex -5.48505 16.8813 0
      vertex -1.85538 17.6528 0
    endloop
  endfacet
  facet normal -0.994522 0.104529 0
    outer loop
      vertex 17.3621 -3.69043 0
      vertex 17.75 0 25
      vertex 17.75 0 0
    endloop
  endfacet
  facet normal -0.994522 0.104529 0
    outer loop
      vertex 17.75 0 25
      vertex 17.3621 -3.69043 0
      vertex 17.3621 -3.69043 25
    endloop
  endfacet
  facet normal 0.994522 0.104529 0
    outer loop
      vertex -17.3621 -3.69043 25
      vertex -17.75 0 0
      vertex -17.75 0 25
    endloop
  endfacet
  facet normal 0.994522 0.104529 0
    outer loop
      vertex -17.75 0 0
      vertex -17.3621 -3.69043 25
      vertex -17.3621 -3.69043 0
    endloop
  endfacet
  facet normal -0.743145 0.669131 0
    outer loop
      vertex 11.8771 -13.1908 0
      vertex 14.3601 -10.4332 25
      vertex 14.3601 -10.4332 0
    endloop
  endfacet
  facet normal -0.743145 0.669131 0
    outer loop
      vertex 14.3601 -10.4332 25
      vertex 11.8771 -13.1908 0
      vertex 11.8771 -13.1908 25
    endloop
  endfacet
  facet normal -0.951056 0.309017 0
    outer loop
      vertex 16.2154 -7.21957 0
      vertex 17.3621 -3.69043 25
      vertex 17.3621 -3.69043 0
    endloop
  endfacet
  facet normal -0.951056 0.309017 0
    outer loop
      vertex 17.3621 -3.69043 25
      vertex 16.2154 -7.21957 0
      vertex 16.2154 -7.21957 25
    endloop
  endfacet
  facet normal -0.866025 0.5 0
    outer loop
      vertex 14.3601 -10.4332 0
      vertex 16.2154 -7.21957 25
      vertex 16.2154 -7.21957 0
    endloop
  endfacet
  facet normal -0.866025 0.5 0
    outer loop
      vertex 16.2154 -7.21957 25
      vertex 14.3601 -10.4332 0
      vertex 14.3601 -10.4332 25
    endloop
  endfacet
  facet normal 0.587785 0.809017 -0
    outer loop
      vertex -8.875 -15.372 0
      vertex -11.8771 -13.1908 25
      vertex -8.875 -15.372 25
    endloop
  endfacet
  facet normal 0.587785 0.809017 0
    outer loop
      vertex -11.8771 -13.1908 25
      vertex -8.875 -15.372 0
      vertex -11.8771 -13.1908 0
    endloop
  endfacet
  facet normal 0.866025 0.5 0
    outer loop
      vertex -14.3601 -10.4332 25
      vertex -16.2154 -7.21957 0
      vertex -16.2154 -7.21957 25
    endloop
  endfacet
  facet normal 0.866025 0.5 0
    outer loop
      vertex -16.2154 -7.21957 0
      vertex -14.3601 -10.4332 25
      vertex -14.3601 -10.4332 0
    endloop
  endfacet
  facet normal -0.207912 0.978148 0
    outer loop
      vertex 5.48505 -16.8813 0
      vertex 1.85538 -17.6528 25
      vertex 5.48505 -16.8813 25
    endloop
  endfacet
  facet normal -0.207912 0.978148 0
    outer loop
      vertex 1.85538 -17.6528 25
      vertex 5.48505 -16.8813 0
      vertex 1.85538 -17.6528 0
    endloop
  endfacet
  facet normal -0.587785 0.809017 0
    outer loop
      vertex 11.8771 -13.1908 0
      vertex 8.875 -15.372 25
      vertex 11.8771 -13.1908 25
    endloop
  endfacet
  facet normal -0.587785 0.809017 0
    outer loop
      vertex 8.875 -15.372 25
      vertex 11.8771 -13.1908 0
      vertex 8.875 -15.372 0
    endloop
  endfacet
  facet normal 0.406737 0.913545 -0
    outer loop
      vertex -5.48505 -16.8813 0
      vertex -8.875 -15.372 25
      vertex -5.48505 -16.8813 25
    endloop
  endfacet
  facet normal 0.406737 0.913545 0
    outer loop
      vertex -8.875 -15.372 25
      vertex -5.48505 -16.8813 0
      vertex -8.875 -15.372 0
    endloop
  endfacet
  facet normal 0.743145 0.669131 0
    outer loop
      vertex -11.8771 -13.1908 25
      vertex -14.3601 -10.4332 0
      vertex -14.3601 -10.4332 25
    endloop
  endfacet
  facet normal 0.743145 0.669131 0
    outer loop
      vertex -14.3601 -10.4332 0
      vertex -11.8771 -13.1908 25
      vertex -11.8771 -13.1908 0
    endloop
  endfacet
  facet normal 0.951056 0.309017 0
    outer loop
      vertex -16.2154 -7.21957 25
      vertex -17.3621 -3.69043 0
      vertex -17.3621 -3.69043 25
    endloop
  endfacet
  facet normal 0.951056 0.309017 0
    outer loop
      vertex -17.3621 -3.69043 0
      vertex -16.2154 -7.21957 25
      vertex -16.2154 -7.21957 0
    endloop
  endfacet
  facet normal -0.406737 0.913545 0
    outer loop
      vertex 8.875 -15.372 0
      vertex 5.48505 -16.8813 25
      vertex 8.875 -15.372 25
    endloop
  endfacet
  facet normal -0.406737 0.913545 0
    outer loop
      vertex 5.48505 -16.8813 25
      vertex 8.875 -15.372 0
      vertex 5.48505 -16.8813 0
    endloop
  endfacet
  facet normal 0.207912 0.978148 -0
    outer loop
      vertex -1.85538 -17.6528 0
      vertex -5.48505 -16.8813 25
      vertex -1.85538 -17.6528 25
    endloop
  endfacet
  facet normal 0.207912 0.978148 0
    outer loop
      vertex -5.48505 -16.8813 25
      vertex -1.85538 -17.6528 0
      vertex -5.48505 -16.8813 0
    endloop
  endfacet
  facet normal 0.994522 0.104529 0
    outer loop
      vertex 16.75 0 50
      vertex 16.384 3.48252 30
      vertex 16.384 3.48252 50
    endloop
  endfacet
  facet normal 0.994522 0.104529 0
    outer loop
      vertex 16.384 3.48252 30
      vertex 16.75 0 50
      vertex 16.75 0 30
    endloop
  endfacet
  facet normal -0.994522 0.104529 0
    outer loop
      vertex -16.75 0 30
      vertex -16.384 3.48252 50
      vertex -16.384 3.48252 30
    endloop
  endfacet
  facet normal -0.994522 0.104529 0
    outer loop
      vertex -16.384 3.48252 50
      vertex -16.75 0 30
      vertex -16.75 0 50
    endloop
  endfacet
  facet normal 0 1 -0
    outer loop
      vertex 1.75085 16.6582 30
      vertex -1.75085 16.6582 50
      vertex 1.75085 16.6582 50
    endloop
  endfacet
  facet normal 0 1 0
    outer loop
      vertex -1.75085 16.6582 50
      vertex 1.75085 16.6582 30
      vertex -1.75085 16.6582 30
    endloop
  endfacet
  facet normal 0 -1 0
    outer loop
      vertex -1.75085 -16.6582 30
      vertex 1.75085 -16.6582 50
      vertex -1.75085 -16.6582 50
    endloop
  endfacet
  facet normal 0 -1 -0
    outer loop
      vertex 1.75085 -16.6582 50
      vertex -1.75085 -16.6582 30
      vertex 1.75085 -16.6582 30
    endloop
  endfacet
  facet normal 0.587785 0.809017 -0
    outer loop
      vertex 11.2079 12.4477 30
      vertex 8.375 14.5059 50
      vertex 11.2079 12.4477 50
    endloop
  endfacet
  facet normal 0.587785 0.809017 0
    outer loop
      vertex 8.375 14.5059 50
      vertex 11.2079 12.4477 30
      vertex 8.375 14.5059 30
    endloop
  endfacet
  facet normal -0.587785 0.809017 0
    outer loop
      vertex -8.375 14.5059 30
      vertex -11.2079 12.4477 50
      vertex -8.375 14.5059 50
    endloop
  endfacet
  facet normal -0.587785 0.809017 0
    outer loop
      vertex -11.2079 12.4477 50
      vertex -8.375 14.5059 30
      vertex -11.2079 12.4477 30
    endloop
  endfacet
  facet normal -0.406737 0.913545 0
    outer loop
      vertex -5.17603 15.9302 30
      vertex -8.375 14.5059 50
      vertex -5.17603 15.9302 50
    endloop
  endfacet
  facet normal -0.406737 0.913545 0
    outer loop
      vertex -8.375 14.5059 50
      vertex -5.17603 15.9302 30
      vertex -8.375 14.5059 30
    endloop
  endfacet
  facet normal 0.951056 -0.309017 0
    outer loop
      vertex 15.3019 -6.81284 50
      vertex 16.384 -3.48252 30
      vertex 16.384 -3.48252 50
    endloop
  endfacet
  facet normal 0.951056 -0.309017 0
    outer loop
      vertex 16.384 -3.48252 30
      vertex 15.3019 -6.81284 50
      vertex 15.3019 -6.81284 30
    endloop
  endfacet
  facet normal 0.866025 0.5 0
    outer loop
      vertex 15.3019 6.81284 50
      vertex 13.551 9.8454 30
      vertex 13.551 9.8454 50
    endloop
  endfacet
  facet normal 0.866025 0.5 0
    outer loop
      vertex 13.551 9.8454 30
      vertex 15.3019 6.81284 50
      vertex 15.3019 6.81284 30
    endloop
  endfacet
  facet normal 0.951056 0.309017 0
    outer loop
      vertex 16.384 3.48252 50
      vertex 15.3019 6.81284 30
      vertex 15.3019 6.81284 50
    endloop
  endfacet
  facet normal 0.951056 0.309017 0
    outer loop
      vertex 15.3019 6.81284 30
      vertex 16.384 3.48252 50
      vertex 16.384 3.48252 30
    endloop
  endfacet
  facet normal 0.743145 0.669131 0
    outer loop
      vertex 13.551 9.8454 50
      vertex 11.2079 12.4477 30
      vertex 11.2079 12.4477 50
    endloop
  endfacet
  facet normal 0.743145 0.669131 0
    outer loop
      vertex 11.2079 12.4477 30
      vertex 13.551 9.8454 50
      vertex 13.551 9.8454 30
    endloop
  endfacet
  facet normal 0.207912 0.978148 -0
    outer loop
      vertex 5.17603 15.9302 30
      vertex 1.75085 16.6582 50
      vertex 5.17603 15.9302 50
    endloop
  endfacet
  facet normal 0.207912 0.978148 0
    outer loop
      vertex 1.75085 16.6582 50
      vertex 5.17603 15.9302 30
      vertex 1.75085 16.6582 30
    endloop
  endfacet
  facet normal 0.406736 0.913546 -0
    outer loop
      vertex 8.375 14.5059 30
      vertex 5.17603 15.9302 50
      vertex 8.375 14.5059 50
    endloop
  endfacet
  facet normal 0.406736 0.913546 0
    outer loop
      vertex 5.17603 15.9302 50
      vertex 8.375 14.5059 30
      vertex 5.17603 15.9302 30
    endloop
  endfacet
  facet normal -0.866025 0.5 0
    outer loop
      vertex -15.3019 6.81284 30
      vertex -13.551 9.8454 50
      vertex -13.551 9.8454 30
    endloop
  endfacet
  facet normal -0.866025 0.5 0
    outer loop
      vertex -13.551 9.8454 50
      vertex -15.3019 6.81284 30
      vertex -15.3019 6.81284 50
    endloop
  endfacet
  facet normal -0.743145 0.669131 0
    outer loop
      vertex -13.551 9.8454 30
      vertex -11.2079 12.4477 50
      vertex -11.2079 12.4477 30
    endloop
  endfacet
  facet normal -0.743145 0.669131 0
    outer loop
      vertex -11.2079 12.4477 50
      vertex -13.551 9.8454 30
      vertex -13.551 9.8454 50
    endloop
  endfacet
  facet normal -0.951056 0.309017 0
    outer loop
      vertex -16.384 3.48252 30
      vertex -15.3019 6.81284 50
      vertex -15.3019 6.81284 30
    endloop
  endfacet
  facet normal -0.951056 0.309017 0
    outer loop
      vertex -15.3019 6.81284 50
      vertex -16.384 3.48252 30
      vertex -16.384 3.48252 50
    endloop
  endfacet
  facet normal 0 0 1
    outer loop
      vertex 15.5 0 50
      vertex 16.75 0 50
      vertex 16.384 3.48252 50
    endloop
  endfacet
  facet normal 0 0 1
    outer loop
      vertex 16.75 0 50
      vertex 15.5 0 50
      vertex 16.384 -3.48252 50
    endloop
  endfacet
  facet normal 0 0 1
    outer loop
      vertex 15.1613 3.22263 50
      vertex 16.384 3.48252 50
      vertex 15.3019 6.81284 50
    endloop
  endfacet
  facet normal 0 0 1
    outer loop
      vertex 16.384 3.48252 50
      vertex 15.1613 3.22263 50
      vertex 15.5 0 50
    endloop
  endfacet
  facet normal 0 0 1
    outer loop
      vertex 15.3019 6.81284 50
      vertex 14.16 6.30442 50
      vertex 15.1613 3.22263 50
    endloop
  endfacet
  facet normal 0 0 1
    outer loop
      vertex 13.551 9.8454 50
      vertex 14.16 6.30442 50
      vertex 15.3019 6.81284 50
    endloop
  endfacet
  facet normal 0 0 1
    outer loop
      vertex 13.551 9.8454 50
      vertex 12.5398 9.11067 50
      vertex 14.16 6.30442 50
    endloop
  endfacet
  facet normal 0 0 1
    outer loop
      vertex 11.2079 12.4477 50
      vertex 12.5398 9.11067 50
      vertex 13.551 9.8454 50
    endloop
  endfacet
  facet normal 0 0 1
    outer loop
      vertex 11.2079 12.4477 50
      vertex 10.3715 11.5187 50
      vertex 12.5398 9.11067 50
    endloop
  endfacet
  facet normal 0 0 1
    outer loop
      vertex 8.375 14.5059 50
      vertex 10.3715 11.5187 50
      vertex 11.2079 12.4477 50
    endloop
  endfacet
  facet normal 0 0 1
    outer loop
      vertex 8.375 14.5059 50
      vertex 7.75 13.4234 50
      vertex 10.3715 11.5187 50
    endloop
  endfacet
  facet normal 0 0 1
    outer loop
      vertex 5.17603 15.9302 50
      vertex 7.75 13.4234 50
      vertex 8.375 14.5059 50
    endloop
  endfacet
  facet normal 0 0 1
    outer loop
      vertex 5.17603 15.9302 50
      vertex 4.78976 14.7414 50
      vertex 7.75 13.4234 50
    endloop
  endfacet
  facet normal 0 0 1
    outer loop
      vertex 1.75085 16.6582 50
      vertex 4.78976 14.7414 50
      vertex 5.17603 15.9302 50
    endloop
  endfacet
  facet normal 0 0 1
    outer loop
      vertex 1.75085 16.6582 50
      vertex 1.62019 15.4151 50
      vertex 4.78976 14.7414 50
    endloop
  endfacet
  facet normal 0 0 1
    outer loop
      vertex 1.75085 16.6582 50
      vertex -1.62019 15.4151 50
      vertex 1.62019 15.4151 50
    endloop
  endfacet
  facet normal -0 0 1
    outer loop
      vertex -1.75085 16.6582 50
      vertex -1.62019 15.4151 50
      vertex 1.75085 16.6582 50
    endloop
  endfacet
  facet normal 0 0 1
    outer loop
      vertex -1.75085 16.6582 50
      vertex -4.78976 14.7414 50
      vertex -1.62019 15.4151 50
    endloop
  endfacet
  facet normal -0 0 1
    outer loop
      vertex -5.17603 15.9302 50
      vertex -4.78976 14.7414 50
      vertex -1.75085 16.6582 50
    endloop
  endfacet
  facet normal 0 0 1
    outer loop
      vertex -5.17603 15.9302 50
      vertex -7.75 13.4234 50
      vertex -4.78976 14.7414 50
    endloop
  endfacet
  facet normal -0 0 1
    outer loop
      vertex -8.375 14.5059 50
      vertex -7.75 13.4234 50
      vertex -5.17603 15.9302 50
    endloop
  endfacet
  facet normal 0 0 1
    outer loop
      vertex -8.375 14.5059 50
      vertex -10.3715 11.5187 50
      vertex -7.75 13.4234 50
    endloop
  endfacet
  facet normal -0 0 1
    outer loop
      vertex -11.2079 12.4477 50
      vertex -10.3715 11.5187 50
      vertex -8.375 14.5059 50
    endloop
  endfacet
  facet normal 0 0 1
    outer loop
      vertex -11.2079 12.4477 50
      vertex -12.5398 9.11067 50
      vertex -10.3715 11.5187 50
    endloop
  endfacet
  facet normal -0 0 1
    outer loop
      vertex -13.551 9.8454 50
      vertex -12.5398 9.11067 50
      vertex -11.2079 12.4477 50
    endloop
  endfacet
  facet normal 0 0 1
    outer loop
      vertex -13.551 9.8454 50
      vertex -14.16 6.30442 50
      vertex -12.5398 9.11067 50
    endloop
  endfacet
  facet normal -0 0 1
    outer loop
      vertex -15.3019 6.81284 50
      vertex -14.16 6.30442 50
      vertex -13.551 9.8454 50
    endloop
  endfacet
  facet normal 0 0 1
    outer loop
      vertex -14.16 6.30442 50
      vertex -15.3019 6.81284 50
      vertex -15.1613 3.22263 50
    endloop
  endfacet
  facet normal -0 0 1
    outer loop
      vertex -16.384 3.48252 50
      vertex -15.1613 3.22263 50
      vertex -15.3019 6.81284 50
    endloop
  endfacet
  facet normal 0 0 1
    outer loop
      vertex -15.1613 3.22263 50
      vertex -16.384 3.48252 50
      vertex -15.5 0 50
    endloop
  endfacet
  facet normal -0 0 1
    outer loop
      vertex 15.1613 -3.22263 50
      vertex 16.384 -3.48252 50
      vertex 15.5 0 50
    endloop
  endfacet
  facet normal 0 0 1
    outer loop
      vertex 16.384 -3.48252 50
      vertex 15.1613 -3.22263 50
      vertex 15.3019 -6.81284 50
    endloop
  endfacet
  facet normal -0 0 1
    outer loop
      vertex 14.16 -6.30442 50
      vertex 15.3019 -6.81284 50
      vertex 15.1613 -3.22263 50
    endloop
  endfacet
  facet normal 0 0 1
    outer loop
      vertex 14.16 -6.30442 50
      vertex 13.551 -9.8454 50
      vertex 15.3019 -6.81284 50
    endloop
  endfacet
  facet normal -0 0 1
    outer loop
      vertex 12.5398 -9.11067 50
      vertex 13.551 -9.8454 50
      vertex 14.16 -6.30442 50
    endloop
  endfacet
  facet normal 0 0 1
    outer loop
      vertex 12.5398 -9.11067 50
      vertex 11.2079 -12.4477 50
      vertex 13.551 -9.8454 50
    endloop
  endfacet
  facet normal -0 0 1
    outer loop
      vertex 10.3715 -11.5187 50
      vertex 11.2079 -12.4477 50
      vertex 12.5398 -9.11067 50
    endloop
  endfacet
  facet normal 0 0 1
    outer loop
      vertex 10.3715 -11.5187 50
      vertex 8.375 -14.5059 50
      vertex 11.2079 -12.4477 50
    endloop
  endfacet
  facet normal -0 0 1
    outer loop
      vertex 7.75 -13.4234 50
      vertex 8.375 -14.5059 50
      vertex 10.3715 -11.5187 50
    endloop
  endfacet
  facet normal 0 0 1
    outer loop
      vertex 7.75 -13.4234 50
      vertex 5.17603 -15.9302 50
      vertex 8.375 -14.5059 50
    endloop
  endfacet
  facet normal -0 0 1
    outer loop
      vertex 4.78976 -14.7414 50
      vertex 5.17603 -15.9302 50
      vertex 7.75 -13.4234 50
    endloop
  endfacet
  facet normal 0 0 1
    outer loop
      vertex 4.78976 -14.7414 50
      vertex 1.75085 -16.6582 50
      vertex 5.17603 -15.9302 50
    endloop
  endfacet
  facet normal -0 0 1
    outer loop
      vertex 1.62019 -15.4151 50
      vertex 1.75085 -16.6582 50
      vertex 4.78976 -14.7414 50
    endloop
  endfacet
  facet normal -0 0 1
    outer loop
      vertex -1.62019 -15.4151 50
      vertex 1.75085 -16.6582 50
      vertex 1.62019 -15.4151 50
    endloop
  endfacet
  facet normal 0 0 1
    outer loop
      vertex -1.62019 -15.4151 50
      vertex -1.75085 -16.6582 50
      vertex 1.75085 -16.6582 50
    endloop
  endfacet
  facet normal 0 0 1
    outer loop
      vertex -4.78976 -14.7414 50
      vertex -1.75085 -16.6582 50
      vertex -1.62019 -15.4151 50
    endloop
  endfacet
  facet normal 0 0 1
    outer loop
      vertex -4.78976 -14.7414 50
      vertex -5.17603 -15.9302 50
      vertex -1.75085 -16.6582 50
    endloop
  endfacet
  facet normal 0 0 1
    outer loop
      vertex -7.75 -13.4234 50
      vertex -5.17603 -15.9302 50
      vertex -4.78976 -14.7414 50
    endloop
  endfacet
  facet normal 0 0 1
    outer loop
      vertex -7.75 -13.4234 50
      vertex -8.375 -14.5059 50
      vertex -5.17603 -15.9302 50
    endloop
  endfacet
  facet normal 0 0 1
    outer loop
      vertex -10.3715 -11.5187 50
      vertex -8.375 -14.5059 50
      vertex -7.75 -13.4234 50
    endloop
  endfacet
  facet normal 0 0 1
    outer loop
      vertex -10.3715 -11.5187 50
      vertex -11.2079 -12.4477 50
      vertex -8.375 -14.5059 50
    endloop
  endfacet
  facet normal 0 0 1
    outer loop
      vertex -12.5398 -9.11067 50
      vertex -11.2079 -12.4477 50
      vertex -10.3715 -11.5187 50
    endloop
  endfacet
  facet normal 0 0 1
    outer loop
      vertex -12.5398 -9.11067 50
      vertex -13.551 -9.8454 50
      vertex -11.2079 -12.4477 50
    endloop
  endfacet
  facet normal 0 0 1
    outer loop
      vertex -14.16 -6.30442 50
      vertex -13.551 -9.8454 50
      vertex -12.5398 -9.11067 50
    endloop
  endfacet
  facet normal 0 0 1
    outer loop
      vertex -15.3019 -6.81284 50
      vertex -14.16 -6.30442 50
      vertex -15.1613 -3.22263 50
    endloop
  endfacet
  facet normal 0 0 1
    outer loop
      vertex -14.16 -6.30442 50
      vertex -15.3019 -6.81284 50
      vertex -13.551 -9.8454 50
    endloop
  endfacet
  facet normal 0 0 1
    outer loop
      vertex -16.384 -3.48252 50
      vertex -15.1613 -3.22263 50
      vertex -15.5 0 50
    endloop
  endfacet
  facet normal 0 0 1
    outer loop
      vertex -16.75 0 50
      vertex -15.5 0 50
      vertex -16.384 3.48252 50
    endloop
  endfacet
  facet normal 0 0 1
    outer loop
      vertex -15.1613 -3.22263 50
      vertex -16.384 -3.48252 50
      vertex -15.3019 -6.81284 50
    endloop
  endfacet
  facet normal 0 0 1
    outer loop
      vertex -15.5 0 50
      vertex -16.75 0 50
      vertex -16.384 -3.48252 50
    endloop
  endfacet
  facet normal -0.207912 0.978148 0
    outer loop
      vertex -1.75085 16.6582 30
      vertex -5.17603 15.9302 50
      vertex -1.75085 16.6582 50
    endloop
  endfacet
  facet normal -0.207912 0.978148 0
    outer loop
      vertex -5.17603 15.9302 50
      vertex -1.75085 16.6582 30
      vertex -5.17603 15.9302 30
    endloop
  endfacet
  facet normal 0.994522 -0.104529 0
    outer loop
      vertex 16.384 -3.48252 50
      vertex 16.75 0 30
      vertex 16.75 0 50
    endloop
  endfacet
  facet normal 0.994522 -0.104529 0
    outer loop
      vertex 16.75 0 30
      vertex 16.384 -3.48252 50
      vertex 16.384 -3.48252 30
    endloop
  endfacet
  facet normal 0.866025 -0.5 0
    outer loop
      vertex 13.551 -9.8454 50
      vertex 15.3019 -6.81284 30
      vertex 15.3019 -6.81284 50
    endloop
  endfacet
  facet normal 0.866025 -0.5 0
    outer loop
      vertex 15.3019 -6.81284 30
      vertex 13.551 -9.8454 50
      vertex 13.551 -9.8454 30
    endloop
  endfacet
  facet normal -0.866025 -0.5 0
    outer loop
      vertex -13.551 -9.8454 30
      vertex -15.3019 -6.81284 50
      vertex -15.3019 -6.81284 30
    endloop
  endfacet
  facet normal -0.866025 -0.5 0
    outer loop
      vertex -15.3019 -6.81284 50
      vertex -13.551 -9.8454 30
      vertex -13.551 -9.8454 50
    endloop
  endfacet
  facet normal -0.743145 -0.669131 0
    outer loop
      vertex -11.2079 -12.4477 30
      vertex -13.551 -9.8454 50
      vertex -13.551 -9.8454 30
    endloop
  endfacet
  facet normal -0.743145 -0.669131 0
    outer loop
      vertex -13.551 -9.8454 50
      vertex -11.2079 -12.4477 30
      vertex -11.2079 -12.4477 50
    endloop
  endfacet
  facet normal 0.587785 -0.809017 0
    outer loop
      vertex 8.375 -14.5059 30
      vertex 11.2079 -12.4477 50
      vertex 8.375 -14.5059 50
    endloop
  endfacet
  facet normal 0.587785 -0.809017 0
    outer loop
      vertex 11.2079 -12.4477 50
      vertex 8.375 -14.5059 30
      vertex 11.2079 -12.4477 30
    endloop
  endfacet
  facet normal -0.207912 -0.978148 0
    outer loop
      vertex -5.17603 -15.9302 30
      vertex -1.75085 -16.6582 50
      vertex -5.17603 -15.9302 50
    endloop
  endfacet
  facet normal -0.207912 -0.978148 -0
    outer loop
      vertex -1.75085 -16.6582 50
      vertex -5.17603 -15.9302 30
      vertex -1.75085 -16.6582 30
    endloop
  endfacet
  facet normal -0.951056 -0.309017 0
    outer loop
      vertex -15.3019 -6.81284 30
      vertex -16.384 -3.48252 50
      vertex -16.384 -3.48252 30
    endloop
  endfacet
  facet normal -0.951056 -0.309017 0
    outer loop
      vertex -16.384 -3.48252 50
      vertex -15.3019 -6.81284 30
      vertex -15.3019 -6.81284 50
    endloop
  endfacet
  facet normal -0.994522 -0.104529 0
    outer loop
      vertex -16.384 -3.48252 30
      vertex -16.75 0 50
      vertex -16.75 0 30
    endloop
  endfacet
  facet normal -0.994522 -0.104529 0
    outer loop
      vertex -16.75 0 50
      vertex -16.384 -3.48252 30
      vertex -16.384 -3.48252 50
    endloop
  endfacet
  facet normal 0.406736 -0.913546 0
    outer loop
      vertex 5.17603 -15.9302 30
      vertex 8.375 -14.5059 50
      vertex 5.17603 -15.9302 50
    endloop
  endfacet
  facet normal 0.406736 -0.913546 0
    outer loop
      vertex 8.375 -14.5059 50
      vertex 5.17603 -15.9302 30
      vertex 8.375 -14.5059 30
    endloop
  endfacet
  facet normal 0.207912 -0.978148 0
    outer loop
      vertex 1.75085 -16.6582 30
      vertex 5.17603 -15.9302 50
      vertex 1.75085 -16.6582 50
    endloop
  endfacet
  facet normal 0.207912 -0.978148 0
    outer loop
      vertex 5.17603 -15.9302 50
      vertex 1.75085 -16.6582 30
      vertex 5.17603 -15.9302 30
    endloop
  endfacet
  facet normal 0.743145 -0.669131 0
    outer loop
      vertex 11.2079 -12.4477 50
      vertex 13.551 -9.8454 30
      vertex 13.551 -9.8454 50
    endloop
  endfacet
  facet normal 0.743145 -0.669131 0
    outer loop
      vertex 13.551 -9.8454 30
      vertex 11.2079 -12.4477 50
      vertex 11.2079 -12.4477 30
    endloop
  endfacet
  facet normal -0.406736 -0.913546 0
    outer loop
      vertex -8.375 -14.5059 30
      vertex -5.17603 -15.9302 50
      vertex -8.375 -14.5059 50
    endloop
  endfacet
  facet normal -0.406736 -0.913546 -0
    outer loop
      vertex -5.17603 -15.9302 50
      vertex -8.375 -14.5059 30
      vertex -5.17603 -15.9302 30
    endloop
  endfacet
  facet normal -0.587785 -0.809017 0
    outer loop
      vertex -11.2079 -12.4477 30
      vertex -8.375 -14.5059 50
      vertex -11.2079 -12.4477 50
    endloop
  endfacet
  facet normal -0.587785 -0.809017 -0
    outer loop
      vertex -8.375 -14.5059 50
      vertex -11.2079 -12.4477 30
      vertex -8.375 -14.5059 30
    endloop
  endfacet
  facet normal 0 0 1
    outer loop
      vertex 16.75 0 30
      vertex 19 0 30
      vertex 18.5848 3.95032 30
    endloop
  endfacet
  facet normal 0 0 1
    outer loop
      vertex 16.384 3.48252 30
      vertex 18.5848 3.95032 30
      vertex 17.3574 7.728 30
    endloop
  endfacet
  facet normal 0 0 1
    outer loop
      vertex 19 0 30
      vertex 16.75 0 30
      vertex 18.5848 -3.95032 30
    endloop
  endfacet
  facet normal -0 0 1
    outer loop
      vertex 16.384 -3.48252 30
      vertex 18.5848 -3.95032 30
      vertex 16.75 0 30
    endloop
  endfacet
  facet normal 0 0 1
    outer loop
      vertex 18.5848 3.95032 30
      vertex 16.384 3.48252 30
      vertex 16.75 0 30
    endloop
  endfacet
  facet normal 0 0 1
    outer loop
      vertex 15.3019 6.81284 30
      vertex 17.3574 7.728 30
      vertex 15.3713 11.1679 30
    endloop
  endfacet
  facet normal 0 0 1
    outer loop
      vertex 17.3574 7.728 30
      vertex 15.3019 6.81284 30
      vertex 16.384 3.48252 30
    endloop
  endfacet
  facet normal 0 0 1
    outer loop
      vertex 15.3713 11.1679 30
      vertex 13.551 9.8454 30
      vertex 15.3019 6.81284 30
    endloop
  endfacet
  facet normal 0 0 1
    outer loop
      vertex 12.7135 14.1198 30
      vertex 13.551 9.8454 30
      vertex 15.3713 11.1679 30
    endloop
  endfacet
  facet normal 0 0 1
    outer loop
      vertex 12.7135 14.1198 30
      vertex 11.2079 12.4477 30
      vertex 13.551 9.8454 30
    endloop
  endfacet
  facet normal 0 0 1
    outer loop
      vertex 9.5 16.4545 30
      vertex 11.2079 12.4477 30
      vertex 12.7135 14.1198 30
    endloop
  endfacet
  facet normal 0 0 1
    outer loop
      vertex 9.5 16.4545 30
      vertex 8.375 14.5059 30
      vertex 11.2079 12.4477 30
    endloop
  endfacet
  facet normal 0 0 1
    outer loop
      vertex 5.87132 18.0701 30
      vertex 8.375 14.5059 30
      vertex 9.5 16.4545 30
    endloop
  endfacet
  facet normal 0 0 1
    outer loop
      vertex 5.87132 18.0701 30
      vertex 5.17603 15.9302 30
      vertex 8.375 14.5059 30
    endloop
  endfacet
  facet normal 0 0 1
    outer loop
      vertex 1.98604 18.8959 30
      vertex 5.17603 15.9302 30
      vertex 5.87132 18.0701 30
    endloop
  endfacet
  facet normal 0 0 1
    outer loop
      vertex 1.98604 18.8959 30
      vertex 1.75085 16.6582 30
      vertex 5.17603 15.9302 30
    endloop
  endfacet
  facet normal 0 0 1
    outer loop
      vertex 1.98604 18.8959 30
      vertex -1.75085 16.6582 30
      vertex 1.75085 16.6582 30
    endloop
  endfacet
  facet normal -0 0 1
    outer loop
      vertex -1.98604 18.8959 30
      vertex -1.75085 16.6582 30
      vertex 1.98604 18.8959 30
    endloop
  endfacet
  facet normal 0 0 1
    outer loop
      vertex -1.98604 18.8959 30
      vertex -5.17603 15.9302 30
      vertex -1.75085 16.6582 30
    endloop
  endfacet
  facet normal -0 0 1
    outer loop
      vertex -5.87132 18.0701 30
      vertex -5.17603 15.9302 30
      vertex -1.98604 18.8959 30
    endloop
  endfacet
  facet normal 0 0 1
    outer loop
      vertex -5.87132 18.0701 30
      vertex -8.375 14.5059 30
      vertex -5.17603 15.9302 30
    endloop
  endfacet
  facet normal -0 0 1
    outer loop
      vertex -9.5 16.4545 30
      vertex -8.375 14.5059 30
      vertex -5.87132 18.0701 30
    endloop
  endfacet
  facet normal 0 0 1
    outer loop
      vertex -9.5 16.4545 30
      vertex -11.2079 12.4477 30
      vertex -8.375 14.5059 30
    endloop
  endfacet
  facet normal -0 0 1
    outer loop
      vertex -12.7135 14.1198 30
      vertex -11.2079 12.4477 30
      vertex -9.5 16.4545 30
    endloop
  endfacet
  facet normal 0 0 1
    outer loop
      vertex -12.7135 14.1198 30
      vertex -13.551 9.8454 30
      vertex -11.2079 12.4477 30
    endloop
  endfacet
  facet normal -0 0 1
    outer loop
      vertex -15.3713 11.1679 30
      vertex -13.551 9.8454 30
      vertex -12.7135 14.1198 30
    endloop
  endfacet
  facet normal 0 0 1
    outer loop
      vertex -13.551 9.8454 30
      vertex -15.3713 11.1679 30
      vertex -15.3019 6.81284 30
    endloop
  endfacet
  facet normal -0 0 1
    outer loop
      vertex -17.3574 7.728 30
      vertex -15.3019 6.81284 30
      vertex -15.3713 11.1679 30
    endloop
  endfacet
  facet normal -0 0 1
    outer loop
      vertex -18.5848 3.95032 30
      vertex -16.384 3.48252 30
      vertex -17.3574 7.728 30
    endloop
  endfacet
  facet normal 0 0 1
    outer loop
      vertex -15.3019 6.81284 30
      vertex -17.3574 7.728 30
      vertex -16.384 3.48252 30
    endloop
  endfacet
  facet normal 0 0 1
    outer loop
      vertex 18.5848 -3.95032 30
      vertex 16.384 -3.48252 30
      vertex 17.3574 -7.728 30
    endloop
  endfacet
  facet normal -0 0 1
    outer loop
      vertex 15.3019 -6.81284 30
      vertex 17.3574 -7.728 30
      vertex 16.384 -3.48252 30
    endloop
  endfacet
  facet normal 0 0 1
    outer loop
      vertex 17.3574 -7.728 30
      vertex 15.3019 -6.81284 30
      vertex 15.3713 -11.1679 30
    endloop
  endfacet
  facet normal -0 0 1
    outer loop
      vertex 13.551 -9.8454 30
      vertex 15.3713 -11.1679 30
      vertex 15.3019 -6.81284 30
    endloop
  endfacet
  facet normal 0 0 1
    outer loop
      vertex 13.551 -9.8454 30
      vertex 12.7135 -14.1198 30
      vertex 15.3713 -11.1679 30
    endloop
  endfacet
  facet normal -0 0 1
    outer loop
      vertex 11.2079 -12.4477 30
      vertex 12.7135 -14.1198 30
      vertex 13.551 -9.8454 30
    endloop
  endfacet
  facet normal 0 0 1
    outer loop
      vertex 11.2079 -12.4477 30
      vertex 9.5 -16.4545 30
      vertex 12.7135 -14.1198 30
    endloop
  endfacet
  facet normal -0 0 1
    outer loop
      vertex 8.375 -14.5059 30
      vertex 9.5 -16.4545 30
      vertex 11.2079 -12.4477 30
    endloop
  endfacet
  facet normal 0 0 1
    outer loop
      vertex 8.375 -14.5059 30
      vertex 5.87132 -18.0701 30
      vertex 9.5 -16.4545 30
    endloop
  endfacet
  facet normal -0 0 1
    outer loop
      vertex 5.17603 -15.9302 30
      vertex 5.87132 -18.0701 30
      vertex 8.375 -14.5059 30
    endloop
  endfacet
  facet normal 0 0 1
    outer loop
      vertex 5.17603 -15.9302 30
      vertex 1.98604 -18.8959 30
      vertex 5.87132 -18.0701 30
    endloop
  endfacet
  facet normal -0 0 1
    outer loop
      vertex 1.75085 -16.6582 30
      vertex 1.98604 -18.8959 30
      vertex 5.17603 -15.9302 30
    endloop
  endfacet
  facet normal -0 0 1
    outer loop
      vertex -1.75085 -16.6582 30
      vertex 1.98604 -18.8959 30
      vertex 1.75085 -16.6582 30
    endloop
  endfacet
  facet normal 0 0 1
    outer loop
      vertex -1.75085 -16.6582 30
      vertex -1.98604 -18.8959 30
      vertex 1.98604 -18.8959 30
    endloop
  endfacet
  facet normal 0 0 1
    outer loop
      vertex -5.17603 -15.9302 30
      vertex -1.98604 -18.8959 30
      vertex -1.75085 -16.6582 30
    endloop
  endfacet
  facet normal 0 0 1
    outer loop
      vertex -5.17603 -15.9302 30
      vertex -5.87132 -18.0701 30
      vertex -1.98604 -18.8959 30
    endloop
  endfacet
  facet normal 0 0 1
    outer loop
      vertex -8.375 -14.5059 30
      vertex -5.87132 -18.0701 30
      vertex -5.17603 -15.9302 30
    endloop
  endfacet
  facet normal 0 0 1
    outer loop
      vertex -8.375 -14.5059 30
      vertex -9.5 -16.4545 30
      vertex -5.87132 -18.0701 30
    endloop
  endfacet
  facet normal 0 0 1
    outer loop
      vertex -11.2079 -12.4477 30
      vertex -9.5 -16.4545 30
      vertex -8.375 -14.5059 30
    endloop
  endfacet
  facet normal 0 0 1
    outer loop
      vertex -11.2079 -12.4477 30
      vertex -12.7135 -14.1198 30
      vertex -9.5 -16.4545 30
    endloop
  endfacet
  facet normal 0 0 1
    outer loop
      vertex -13.551 -9.8454 30
      vertex -12.7135 -14.1198 30
      vertex -11.2079 -12.4477 30
    endloop
  endfacet
  facet normal 0 0 1
    outer loop
      vertex -15.3713 -11.1679 30
      vertex -13.551 -9.8454 30
      vertex -15.3019 -6.81284 30
    endloop
  endfacet
  facet normal 0 0 1
    outer loop
      vertex -13.551 -9.8454 30
      vertex -15.3713 -11.1679 30
      vertex -12.7135 -14.1198 30
    endloop
  endfacet
  facet normal 0 0 1
    outer loop
      vertex -17.3574 -7.728 30
      vertex -15.3019 -6.81284 30
      vertex -16.384 -3.48252 30
    endloop
  endfacet
  facet normal 0 0 1
    outer loop
      vertex -15.3019 -6.81284 30
      vertex -17.3574 -7.728 30
      vertex -15.3713 -11.1679 30
    endloop
  endfacet
  facet normal 0 0 1
    outer loop
      vertex -18.5848 -3.95032 30
      vertex -16.384 -3.48252 30
      vertex -16.75 0 30
    endloop
  endfacet
  facet normal 0 0 1
    outer loop
      vertex -16.384 3.48252 30
      vertex -18.5848 3.95032 30
      vertex -16.75 0 30
    endloop
  endfacet
  facet normal 0 0 1
    outer loop
      vertex -19 0 30
      vertex -16.75 0 30
      vertex -18.5848 3.95032 30
    endloop
  endfacet
  facet normal 0 0 1
    outer loop
      vertex -16.384 -3.48252 30
      vertex -18.5848 -3.95032 30
      vertex -17.3574 -7.728 30
    endloop
  endfacet
  facet normal 0 0 1
    outer loop
      vertex -16.75 0 30
      vertex -19 0 30
      vertex -18.5848 -3.95032 30
    endloop
  endfacet
  facet normal -0.994522 -0.104529 0
    outer loop
      vertex 15.5 0 25
      vertex 15.1613 3.22263 50
      vertex 15.1613 3.22263 25
    endloop
  endfacet
  facet normal -0.994522 -0.104529 0
    outer loop
      vertex 15.1613 3.22263 50
      vertex 15.5 0 25
      vertex 15.5 0 50
    endloop
  endfacet
  facet normal 0.994522 -0.104529 0
    outer loop
      vertex -15.5 0 50
      vertex -15.1613 3.22263 25
      vertex -15.1613 3.22263 50
    endloop
  endfacet
  facet normal 0.994522 -0.104529 0
    outer loop
      vertex -15.1613 3.22263 25
      vertex -15.5 0 50
      vertex -15.5 0 25
    endloop
  endfacet
  facet normal 0 -1 0
    outer loop
      vertex -1.62019 15.4151 25
      vertex 1.62019 15.4151 50
      vertex -1.62019 15.4151 50
    endloop
  endfacet
  facet normal 0 -1 -0
    outer loop
      vertex 1.62019 15.4151 50
      vertex -1.62019 15.4151 25
      vertex 1.62019 15.4151 25
    endloop
  endfacet
  facet normal 0 1 -0
    outer loop
      vertex 1.62019 -15.4151 25
      vertex -1.62019 -15.4151 50
      vertex 1.62019 -15.4151 50
    endloop
  endfacet
  facet normal 0 1 0
    outer loop
      vertex -1.62019 -15.4151 50
      vertex 1.62019 -15.4151 25
      vertex -1.62019 -15.4151 25
    endloop
  endfacet
  facet normal -0.587785 -0.809017 0
    outer loop
      vertex 7.75 13.4234 25
      vertex 10.3715 11.5187 50
      vertex 7.75 13.4234 50
    endloop
  endfacet
  facet normal -0.587785 -0.809017 -0
    outer loop
      vertex 10.3715 11.5187 50
      vertex 7.75 13.4234 25
      vertex 10.3715 11.5187 25
    endloop
  endfacet
  facet normal -0.406737 -0.913545 0
    outer loop
      vertex 4.78976 14.7414 25
      vertex 7.75 13.4234 50
      vertex 4.78976 14.7414 50
    endloop
  endfacet
  facet normal -0.406737 -0.913545 -0
    outer loop
      vertex 7.75 13.4234 50
      vertex 4.78976 14.7414 25
      vertex 7.75 13.4234 25
    endloop
  endfacet
  facet normal 0.587785 -0.809017 0
    outer loop
      vertex -10.3715 11.5187 25
      vertex -7.75 13.4234 50
      vertex -10.3715 11.5187 50
    endloop
  endfacet
  facet normal 0.587785 -0.809017 0
    outer loop
      vertex -7.75 13.4234 50
      vertex -10.3715 11.5187 25
      vertex -7.75 13.4234 25
    endloop
  endfacet
  facet normal 0.207912 -0.978148 0
    outer loop
      vertex -4.78976 14.7414 25
      vertex -1.62019 15.4151 50
      vertex -4.78976 14.7414 50
    endloop
  endfacet
  facet normal 0.207912 -0.978148 0
    outer loop
      vertex -1.62019 15.4151 50
      vertex -4.78976 14.7414 25
      vertex -1.62019 15.4151 25
    endloop
  endfacet
  facet normal -0.866025 -0.5 0
    outer loop
      vertex 14.16 6.30442 25
      vertex 12.5398 9.11067 50
      vertex 12.5398 9.11067 25
    endloop
  endfacet
  facet normal -0.866025 -0.5 0
    outer loop
      vertex 12.5398 9.11067 50
      vertex 14.16 6.30442 25
      vertex 14.16 6.30442 50
    endloop
  endfacet
  facet normal -0.951057 -0.309017 0
    outer loop
      vertex 15.1613 3.22263 25
      vertex 14.16 6.30442 50
      vertex 14.16 6.30442 25
    endloop
  endfacet
  facet normal -0.951057 -0.309017 0
    outer loop
      vertex 14.16 6.30442 50
      vertex 15.1613 3.22263 25
      vertex 15.1613 3.22263 50
    endloop
  endfacet
  facet normal -0.743145 -0.669131 0
    outer loop
      vertex 12.5398 9.11067 25
      vertex 10.3715 11.5187 50
      vertex 10.3715 11.5187 25
    endloop
  endfacet
  facet normal -0.743145 -0.669131 0
    outer loop
      vertex 10.3715 11.5187 50
      vertex 12.5398 9.11067 25
      vertex 12.5398 9.11067 50
    endloop
  endfacet
  facet normal -0.207912 -0.978148 0
    outer loop
      vertex 1.62019 15.4151 25
      vertex 4.78976 14.7414 50
      vertex 1.62019 15.4151 50
    endloop
  endfacet
  facet normal -0.207912 -0.978148 -0
    outer loop
      vertex 4.78976 14.7414 50
      vertex 1.62019 15.4151 25
      vertex 4.78976 14.7414 25
    endloop
  endfacet
  facet normal 0.866025 -0.5 0
    outer loop
      vertex -14.16 6.30442 50
      vertex -12.5398 9.11067 25
      vertex -12.5398 9.11067 50
    endloop
  endfacet
  facet normal 0.866025 -0.5 0
    outer loop
      vertex -12.5398 9.11067 25
      vertex -14.16 6.30442 50
      vertex -14.16 6.30442 25
    endloop
  endfacet
  facet normal 0.743145 -0.669131 0
    outer loop
      vertex -12.5398 9.11067 50
      vertex -10.3715 11.5187 25
      vertex -10.3715 11.5187 50
    endloop
  endfacet
  facet normal 0.743145 -0.669131 0
    outer loop
      vertex -10.3715 11.5187 25
      vertex -12.5398 9.11067 50
      vertex -12.5398 9.11067 25
    endloop
  endfacet
  facet normal 0.951057 -0.309017 0
    outer loop
      vertex -15.1613 3.22263 50
      vertex -14.16 6.30442 25
      vertex -14.16 6.30442 50
    endloop
  endfacet
  facet normal 0.951057 -0.309017 0
    outer loop
      vertex -14.16 6.30442 25
      vertex -15.1613 3.22263 50
      vertex -15.1613 3.22263 25
    endloop
  endfacet
  facet normal 0.406737 -0.913545 0
    outer loop
      vertex -7.75 13.4234 25
      vertex -4.78976 14.7414 50
      vertex -7.75 13.4234 50
    endloop
  endfacet
  facet normal 0.406737 -0.913545 0
    outer loop
      vertex -4.78976 14.7414 50
      vertex -7.75 13.4234 25
      vertex -4.78976 14.7414 25
    endloop
  endfacet
  facet normal -0.994522 0.104529 0
    outer loop
      vertex 15.1613 -3.22263 25
      vertex 15.5 0 50
      vertex 15.5 0 25
    endloop
  endfacet
  facet normal -0.994522 0.104529 0
    outer loop
      vertex 15.5 0 50
      vertex 15.1613 -3.22263 25
      vertex 15.1613 -3.22263 50
    endloop
  endfacet
  facet normal -0.207912 0.978148 0
    outer loop
      vertex 4.78976 -14.7414 25
      vertex 1.62019 -15.4151 50
      vertex 4.78976 -14.7414 50
    endloop
  endfacet
  facet normal -0.207912 0.978148 0
    outer loop
      vertex 1.62019 -15.4151 50
      vertex 4.78976 -14.7414 25
      vertex 1.62019 -15.4151 25
    endloop
  endfacet
  facet normal -0.866025 0.5 0
    outer loop
      vertex 12.5398 -9.11067 25
      vertex 14.16 -6.30442 50
      vertex 14.16 -6.30442 25
    endloop
  endfacet
  facet normal -0.866025 0.5 0
    outer loop
      vertex 14.16 -6.30442 50
      vertex 12.5398 -9.11067 25
      vertex 12.5398 -9.11067 50
    endloop
  endfacet
  facet normal 0.587785 0.809017 -0
    outer loop
      vertex -7.75 -13.4234 25
      vertex -10.3715 -11.5187 50
      vertex -7.75 -13.4234 50
    endloop
  endfacet
  facet normal 0.587785 0.809017 0
    outer loop
      vertex -10.3715 -11.5187 50
      vertex -7.75 -13.4234 25
      vertex -10.3715 -11.5187 25
    endloop
  endfacet
  facet normal 0.866025 0.5 0
    outer loop
      vertex -12.5398 -9.11067 50
      vertex -14.16 -6.30442 25
      vertex -14.16 -6.30442 50
    endloop
  endfacet
  facet normal 0.866025 0.5 0
    outer loop
      vertex -14.16 -6.30442 25
      vertex -12.5398 -9.11067 50
      vertex -12.5398 -9.11067 25
    endloop
  endfacet
  facet normal 0.743145 0.669131 0
    outer loop
      vertex -10.3715 -11.5187 50
      vertex -12.5398 -9.11067 25
      vertex -12.5398 -9.11067 50
    endloop
  endfacet
  facet normal 0.743145 0.669131 0
    outer loop
      vertex -12.5398 -9.11067 25
      vertex -10.3715 -11.5187 50
      vertex -10.3715 -11.5187 25
    endloop
  endfacet
  facet normal 0.994522 0.104529 0
    outer loop
      vertex -15.1613 -3.22263 50
      vertex -15.5 0 25
      vertex -15.5 0 50
    endloop
  endfacet
  facet normal 0.994522 0.104529 0
    outer loop
      vertex -15.5 0 25
      vertex -15.1613 -3.22263 50
      vertex -15.1613 -3.22263 25
    endloop
  endfacet
  facet normal -0.587785 0.809017 0
    outer loop
      vertex 10.3715 -11.5187 25
      vertex 7.75 -13.4234 50
      vertex 10.3715 -11.5187 50
    endloop
  endfacet
  facet normal -0.587785 0.809017 0
    outer loop
      vertex 7.75 -13.4234 50
      vertex 10.3715 -11.5187 25
      vertex 7.75 -13.4234 25
    endloop
  endfacet
  facet normal -0.406737 0.913545 0
    outer loop
      vertex 7.75 -13.4234 25
      vertex 4.78976 -14.7414 50
      vertex 7.75 -13.4234 50
    endloop
  endfacet
  facet normal -0.406737 0.913545 0
    outer loop
      vertex 4.78976 -14.7414 50
      vertex 7.75 -13.4234 25
      vertex 4.78976 -14.7414 25
    endloop
  endfacet
  facet normal -0.951057 0.309017 0
    outer loop
      vertex 14.16 -6.30442 25
      vertex 15.1613 -3.22263 50
      vertex 15.1613 -3.22263 25
    endloop
  endfacet
  facet normal -0.951057 0.309017 0
    outer loop
      vertex 15.1613 -3.22263 50
      vertex 14.16 -6.30442 25
      vertex 14.16 -6.30442 50
    endloop
  endfacet
  facet normal 0.207912 0.978148 -0
    outer loop
      vertex -1.62019 -15.4151 25
      vertex -4.78976 -14.7414 50
      vertex -1.62019 -15.4151 50
    endloop
  endfacet
  facet normal 0.207912 0.978148 0
    outer loop
      vertex -4.78976 -14.7414 50
      vertex -1.62019 -15.4151 25
      vertex -4.78976 -14.7414 25
    endloop
  endfacet
  facet normal 0.951057 0.309017 0
    outer loop
      vertex -14.16 -6.30442 50
      vertex -15.1613 -3.22263 25
      vertex -15.1613 -3.22263 50
    endloop
  endfacet
  facet normal 0.951057 0.309017 0
    outer loop
      vertex -15.1613 -3.22263 25
      vertex -14.16 -6.30442 50
      vertex -14.16 -6.30442 25
    endloop
  endfacet
  facet normal -0.743145 0.669131 0
    outer loop
      vertex 10.3715 -11.5187 25
      vertex 12.5398 -9.11067 50
      vertex 12.5398 -9.11067 25
    endloop
  endfacet
  facet normal -0.743145 0.669131 0
    outer loop
      vertex 12.5398 -9.11067 50
      vertex 10.3715 -11.5187 25
      vertex 10.3715 -11.5187 50
    endloop
  endfacet
  facet normal 0.406737 0.913545 -0
    outer loop
      vertex -4.78976 -14.7414 25
      vertex -7.75 -13.4234 50
      vertex -4.78976 -14.7414 50
    endloop
  endfacet
  facet normal 0.406737 0.913545 0
    outer loop
      vertex -7.75 -13.4234 50
      vertex -4.78976 -14.7414 25
      vertex -7.75 -13.4234 25
    endloop
  endfacet
endsolid OpenSCAD_Model
